<svg width="25" height="25" viewBox="0 0 25 25" fill="none" xmlns="http://www.w3.org/2000/svg">
<path d="M24.5 12.75C24.5 19.3774 19.1274 24.75 12.5 24.75C5.87258 24.75 0.5 19.3774 0.5 12.75C0.5 6.12258 5.87258 0.75 12.5 0.75C19.1274 0.75 24.5 6.12258 24.5 12.75Z" fill="url(#paint0_radial_869_92578)"/>
<path d="M24.5 12.75C24.5 19.3774 19.1274 24.75 12.5 24.75C5.87258 24.75 0.5 19.3774 0.5 12.75C0.5 6.12258 5.87258 0.75 12.5 0.75C19.1274 0.75 24.5 6.12258 24.5 12.75Z" fill="url(#paint1_radial_869_92578)" fill-opacity="0.2"/>
<defs>
<radialGradient id="paint0_radial_869_92578" cx="0" cy="0" r="1" gradientUnits="userSpaceOnUse" gradientTransform="translate(20.5383 22.7978) rotate(-129.944) scale(24.4141)">
<stop offset="0.436111" stop-color="#FFAF13"/>
<stop offset="1" stop-color="#FBFF47"/>
</radialGradient>
<radialGradient id="paint1_radial_869_92578" cx="0" cy="0" r="1" gradientUnits="userSpaceOnUse" gradientTransform="translate(4.00239 4.48206) rotate(44.2205) scale(11.9373)">
<stop stop-color="white"/>
<stop offset="0.424767" stop-color="white" stop-opacity="0"/>
</radialGradient>
</defs>
</svg>
